<svg width="101" height="98" viewBox="0 0 101 98" fill="none" xmlns="http://www.w3.org/2000/svg">
<path d="M6.56319 26.6686L21.9316 6.87918L56.4579 0.142334L87.4053 15.7213L100.668 46.4581L93.3 86.8792L72.0369 97.195L39.6158 97.195L16.2474 81.8265L0.668457 57.616L6.56319 26.6686Z" fill="#FFA737"/>
<path d="M29.6074 48.3235C30.4643 49.0282 31.1547 49.9137 31.6294 50.9166C32.8425 53.4187 32.8425 56.4769 32.8425 59.4441C32.8425 65.5882 33.0953 68.5428 38.9083 68.5428C39.4446 68.5428 39.9588 68.7558 40.338 69.135C40.7172 69.5141 40.9302 70.0284 40.9302 70.5647C40.9302 71.1009 40.7172 71.6152 40.338 71.9944C39.9588 72.3736 39.4446 72.5866 38.9083 72.5866C34.4904 72.5866 31.4979 71.0348 30.0118 67.9716C28.7987 65.4694 28.7987 62.4113 28.7987 59.4441C28.7987 53.2999 28.5459 50.3454 22.7329 50.3454C22.1966 50.3454 21.6823 50.1324 21.3031 49.7532C20.924 49.374 20.7109 48.8597 20.7109 48.3235C20.7109 47.7872 20.924 47.2729 21.3031 46.8937C21.6823 46.5146 22.1966 46.3015 22.7329 46.3015C28.5459 46.3015 28.7987 43.347 28.7987 37.2028C28.7987 34.2407 28.7987 31.1775 30.0118 28.6754C31.503 25.6121 34.4954 24.0603 38.9134 24.0603C39.4496 24.0603 39.9639 24.2733 40.3431 24.6525C40.7223 25.0317 40.9353 25.546 40.9353 26.0822C40.9353 26.6185 40.7223 27.1328 40.3431 27.512C39.9639 27.8911 39.4496 28.1042 38.9134 28.1042C33.1003 28.1042 32.8476 31.0587 32.8476 37.2028C32.8476 40.165 32.8476 43.2282 31.6344 45.7303C31.1583 46.7337 30.4661 47.6192 29.6074 48.3235ZM79.352 46.3015C73.5389 46.3015 73.2862 43.347 73.2862 37.2028C73.2862 34.2407 73.2862 31.1775 72.073 28.6754C70.5869 25.6121 67.5944 24.0603 63.1765 24.0603C62.6403 24.0603 62.126 24.2733 61.7468 24.6525C61.3676 25.0317 61.1546 25.546 61.1546 26.0822C61.1546 26.6185 61.3676 27.1328 61.7468 27.512C62.126 27.8911 62.6403 28.1042 63.1765 28.1042C68.9896 28.1042 69.2423 31.0587 69.2423 37.2028C69.2423 40.165 69.2423 43.2282 70.4555 45.7303C70.9301 46.7332 71.6205 47.6187 72.4774 48.3235C71.6205 49.0282 70.9301 49.9137 70.4555 50.9166C69.2423 53.4187 69.2423 56.4769 69.2423 59.4441C69.2423 65.5882 68.9896 68.5428 63.1765 68.5428C62.6403 68.5428 62.126 68.7558 61.7468 69.135C61.3676 69.5141 61.1546 70.0284 61.1546 70.5647C61.1546 71.1009 61.3676 71.6152 61.7468 71.9944C62.126 72.3736 62.6403 72.5866 63.1765 72.5866C67.5944 72.5866 70.5869 71.0348 72.073 67.9716C73.2862 65.4694 73.2862 62.4113 73.2862 59.4441C73.2862 53.2999 73.5389 50.3454 79.352 50.3454C79.8882 50.3454 80.4025 50.1324 80.7817 49.7532C81.1609 49.374 81.3739 48.8597 81.3739 48.3235C81.3739 47.7872 81.1609 47.2729 80.7817 46.8937C80.4025 46.5146 79.8882 46.3015 79.352 46.3015Z" fill="white"/>
</svg>
