<svg width="101" height="98" viewBox="0 0 101 98" fill="none" xmlns="http://www.w3.org/2000/svg">
<path d="M94.7737 70.5263L79.4053 90.3158L44.879 97.0526L13.9316 81.4737L0.668457 50.7368L8.03688 10.3158L29.3 -1.52588e-05H61.7211L85.0895 15.3684L100.668 39.5789L94.7737 70.5263Z" fill="#8338EC"/>
<path d="M81.0893 44.5735H76.4121C76.1552 41.7163 75.407 38.9249 74.2007 36.3221L78.2521 33.9821C78.7773 33.679 79.1605 33.1797 79.3175 32.5941C79.4745 32.0084 79.3924 31.3844 79.0893 30.8593C78.7862 30.3341 78.2869 29.9509 77.7012 29.7939C77.1156 29.6369 76.4916 29.719 75.9664 30.0221L71.9093 32.365C70.2519 30.0247 68.2096 27.9824 65.8693 26.325L68.2121 22.2678C68.5152 21.7427 68.5973 21.1187 68.4403 20.533C68.2833 19.9474 67.9001 19.4481 67.375 19.145C66.8499 18.8419 66.2258 18.7598 65.6402 18.9168C65.0545 19.0738 64.5553 19.457 64.2521 19.9821L61.9121 24.0335C59.3094 22.8272 56.5179 22.0791 53.6607 21.8221V17.145C53.6607 16.5388 53.4199 15.9574 52.9912 15.5287C52.5626 15.1001 51.9812 14.8593 51.375 14.8593C50.7688 14.8593 50.1874 15.1001 49.7588 15.5287C49.3301 15.9574 49.0893 16.5388 49.0893 17.145V21.8221C46.2321 22.0791 43.4406 22.8272 40.8379 24.0335L38.4979 19.9821C38.3478 19.7221 38.1479 19.4942 37.9098 19.3114C37.6716 19.1286 37.3998 18.9945 37.1098 18.9168C36.8198 18.839 36.5174 18.8192 36.2197 18.8583C35.922 18.8975 35.635 18.9949 35.375 19.145C34.8499 19.4481 34.4667 19.9474 34.3097 20.533C34.1527 21.1187 34.2348 21.7427 34.5379 22.2678L36.8807 26.325C34.5404 27.9824 32.4981 30.0247 30.8407 32.365L26.7836 30.0221C26.2584 29.719 25.6344 29.6369 25.0488 29.7939C24.4631 29.9509 23.9638 30.3341 23.6607 30.8593C23.3576 31.3844 23.2755 32.0084 23.4325 32.5941C23.5895 33.1797 23.9727 33.679 24.4979 33.9821L28.5493 36.3221C27.343 38.9249 26.5948 41.7163 26.3379 44.5735H21.6607C21.0545 44.5735 20.4731 44.8144 20.0445 45.243C19.6158 45.6717 19.375 46.253 19.375 46.8593C19.375 47.4655 19.6158 48.0468 20.0445 48.4755C20.4731 48.9042 21.0545 49.145 21.6607 49.145H26.3379C26.5948 52.0022 27.343 54.7936 28.5493 57.3964L24.4979 59.7364C24.0618 59.9879 23.721 60.3762 23.5283 60.8412C23.3356 61.3062 23.3017 61.8217 23.432 62.3079C23.5622 62.7941 23.8493 63.2237 24.2487 63.53C24.6481 63.8364 25.1374 64.0023 25.6407 64.0021C26.042 64.0034 26.4365 63.8978 26.7836 63.6964L30.8407 61.3535C32.4981 63.6938 34.5404 65.7361 36.8807 67.3935L34.5379 71.4507C34.2348 71.9758 34.1527 72.5998 34.3097 73.1855C34.4667 73.7711 34.8499 74.2704 35.375 74.5735C35.9001 74.8766 36.5242 74.9587 37.1098 74.8017C37.6955 74.6447 38.1948 74.2615 38.4979 73.7364L40.8379 69.685C43.4406 70.8913 46.2321 71.6394 49.0893 71.8964V76.5735C49.0893 77.1798 49.3301 77.7611 49.7588 78.1898C50.1874 78.6184 50.7688 78.8593 51.375 78.8593C51.9812 78.8593 52.5626 78.6184 52.9912 78.1898C53.4199 77.7611 53.6607 77.1798 53.6607 76.5735V71.8964C56.5179 71.6394 59.3094 70.8913 61.9121 69.685L64.2521 73.7364C64.5553 74.2615 65.0545 74.6447 65.6402 74.8017C66.2258 74.9587 66.8499 74.8766 67.375 74.5735C67.9001 74.2704 68.2833 73.7711 68.4403 73.1855C68.5973 72.5998 68.5152 71.9758 68.2121 71.4507L65.8693 67.3935C68.2096 65.7361 70.2519 63.6938 71.9093 61.3535L75.9664 63.6964C76.2264 63.8465 76.5135 63.944 76.8111 63.9832C77.1088 64.0224 77.4113 64.0025 77.7013 63.9248C77.9913 63.847 78.2631 63.7129 78.5013 63.5301C78.7394 63.3473 78.9392 63.1193 79.0893 62.8593C79.3927 62.3345 79.4753 61.7107 79.3189 61.125C79.1624 60.5394 78.7797 60.0399 78.255 59.7364L74.2036 57.3964C75.4089 54.7934 76.1561 52.002 76.4121 49.145H81.0893C81.6955 49.145 82.2769 48.9042 82.7055 48.4755C83.1342 48.0468 83.375 47.4655 83.375 46.8593C83.375 46.253 83.1342 45.6717 82.7055 45.243C82.2769 44.8144 81.6955 44.5735 81.0893 44.5735ZM51.375 26.2878C56.433 26.2938 61.3119 28.161 65.0816 31.5334C68.8512 34.9057 71.248 39.5474 71.815 44.5735H52.695L43.135 28.0164C45.7321 26.875 48.5382 26.2863 51.375 26.2878ZM30.8036 46.8593C30.8053 43.6369 31.5641 40.4599 33.0186 37.5845C34.4732 34.7091 36.583 32.2156 39.1779 30.305L48.735 46.8593L39.1779 63.4135C36.583 61.5029 34.4732 59.0094 33.0186 56.134C31.5641 53.2586 30.8053 50.0817 30.8036 46.8593ZM51.375 67.4307C48.5392 67.4367 45.7331 66.8529 43.135 65.7164L52.695 49.145H71.815C71.248 54.1711 68.8512 58.8128 65.0816 62.1851C61.3119 65.5575 56.433 67.4247 51.375 67.4307Z" fill="white"/>
</svg>
