<svg width="105" height="100" viewBox="0 0 105 100" fill="none" xmlns="http://www.w3.org/2000/svg">
<path d="M28.4711 94.1053L7.23075 78.7368L0 44.2105L16.7211 13.2632L49.7114 0L93.0959 7.36842L104.168 28.6316V61.0526L87.6728 84.4211L61.6873 100L28.4711 94.1053Z" fill="#4FB286"/>
<path d="M36.5159 41.0995L25.4969 49.6548L36.5159 58.2101C36.7412 58.3781 36.9283 58.5863 37.0661 58.8225C37.204 59.0587 37.2899 59.3181 37.3189 59.5856C37.3479 59.8531 37.3193 60.1233 37.2348 60.3804C37.1504 60.6375 37.0117 60.8763 36.827 61.0829C36.6423 61.2894 36.4152 61.4596 36.159 61.5834C35.9029 61.7072 35.6228 61.7821 35.3352 61.8039C35.0475 61.8256 34.7582 61.7937 34.4839 61.71C34.2097 61.6263 33.9562 61.4924 33.7381 61.3163L20.7171 51.2067C20.4728 51.0169 20.2762 50.7794 20.1413 50.511C20.0064 50.2427 19.9365 49.9499 19.9365 49.6536C19.9365 49.3572 20.0064 49.0645 20.1413 48.7961C20.2762 48.5277 20.4728 48.2902 20.7171 48.1005L33.7381 37.9908C34.1806 37.6476 34.7513 37.4822 35.3246 37.5311C35.8979 37.5799 36.427 37.8389 36.7954 38.2511C37.1637 38.6634 37.3412 39.1951 37.2888 39.7293C37.2364 40.2634 36.9584 40.7563 36.5159 41.0995ZM84.2596 48.1005L71.2386 37.9908C71.0195 37.8209 70.7666 37.6928 70.4944 37.6139C70.2222 37.535 69.936 37.5069 69.6521 37.5311C69.3682 37.5552 69.0922 37.6313 68.8399 37.7548C68.5875 37.8784 68.3638 38.047 68.1814 38.2511C67.813 38.6634 67.6355 39.1951 67.6879 39.7293C67.7403 40.2634 68.0183 40.7563 68.4608 41.0995L79.4798 49.6548L68.4608 58.2101C68.2355 58.3781 68.0485 58.5863 67.9106 58.8225C67.7727 59.0587 67.6868 59.3181 67.6578 59.5856C67.6289 59.8531 67.6574 60.1233 67.7419 60.3804C67.8264 60.6375 67.965 60.8763 68.1497 61.0829C68.3345 61.2894 68.5615 61.4596 68.8177 61.5834C69.0738 61.7072 69.3539 61.7821 69.6416 61.8039C69.9292 61.8256 70.2186 61.7937 70.4928 61.71C70.767 61.6263 71.0206 61.4924 71.2386 61.3163L84.2596 51.2067C84.5039 51.0169 84.7005 50.7794 84.8354 50.511C84.9703 50.2427 85.0402 49.9499 85.0402 49.6536C85.0402 49.3572 84.9703 49.0645 84.8354 48.7961C84.7005 48.5277 84.5039 48.2902 84.2596 48.1005ZM61.9096 25.513C61.6417 25.4224 61.3573 25.3818 61.0726 25.3936C60.7878 25.4054 60.5084 25.4693 60.2502 25.5817C59.992 25.6942 59.7601 25.8529 59.5677 26.0488C59.3754 26.2447 59.2263 26.474 59.1291 26.7236L41.7677 71.2061C41.6701 71.4558 41.6262 71.721 41.6387 71.9866C41.6511 72.2521 41.7196 72.5128 41.8403 72.7537C41.961 72.9945 42.1315 73.2108 42.342 73.3902C42.5525 73.5696 42.7989 73.7086 43.0671 73.7992C43.3049 73.8779 43.5554 73.9181 43.8077 73.918C44.2534 73.918 44.6882 73.7902 45.0532 73.5519C45.4182 73.3136 45.6956 72.9763 45.8477 72.586L63.209 28.1036C63.3062 27.854 63.3498 27.589 63.3371 27.3237C63.3245 27.0585 63.2558 26.7981 63.1352 26.5575C63.0145 26.317 62.8442 26.1009 62.6339 25.9217C62.4236 25.7425 62.1775 25.6036 61.9096 25.513Z" fill="white"/>
</svg>
