<svg width="25" height="25" viewBox="0 0 25 25" fill="none" xmlns="http://www.w3.org/2000/svg">
<g clip-path="url(#clip0_201_99)">
<path d="M11.9416 25L12.2207 19.6464C12.2248 19.5584 12.209 19.4705 12.1747 19.3894C12.1403 19.3082 12.0881 19.2358 12.0221 19.1775C11.956 19.1191 11.8777 19.0764 11.7929 19.0523C11.7081 19.0283 11.619 19.0235 11.5321 19.0385L6.20336 19.9752L6.92296 17.9901C6.95216 17.9111 6.95589 17.8249 6.93364 17.7437C6.91139 17.6625 6.86427 17.5903 6.79889 17.5372L0.961426 12.8102L2.27656 12.196C2.36538 12.1541 2.43583 12.0811 2.47466 11.9909C2.5135 11.9006 2.51806 11.7993 2.48748 11.706L1.33363 8.15757L4.69592 8.87097C4.78701 8.88996 4.88187 8.87686 4.9644 8.8339C5.04694 8.79093 5.11208 8.72075 5.14877 8.63524L5.80014 7.10298L8.4242 9.91936C8.48421 9.98264 8.56311 10.0248 8.64907 10.0394C8.73504 10.0541 8.82344 10.0405 8.90102 10.0006C8.9786 9.96079 9.04117 9.89688 9.07935 9.81847C9.11753 9.74007 9.12926 9.65139 9.11279 9.56576L7.84728 3.0397L9.87582 4.21216C9.92344 4.24007 9.97629 4.25791 10.0311 4.26456C10.0859 4.27122 10.1415 4.26655 10.1944 4.25085C10.2473 4.23515 10.2965 4.20874 10.3388 4.17328C10.3811 4.13781 10.4156 4.09404 10.4403 4.04466L12.4999 0L14.5594 4.04466C14.5841 4.09404 14.6187 4.13781 14.661 4.17328C14.7033 4.20874 14.7524 4.23515 14.8054 4.25085C14.8583 4.26655 14.9139 4.27122 14.9687 4.26456C15.0235 4.25791 15.0763 4.24007 15.124 4.21216L17.1525 3.0397L15.887 9.56576C15.8705 9.65139 15.8822 9.74007 15.9204 9.81847C15.9586 9.89688 16.0212 9.96079 16.0988 10.0006C16.1763 10.0405 16.2647 10.0541 16.3507 10.0394C16.4367 10.0248 16.5156 9.98264 16.5756 9.91936L19.1996 7.10298L19.851 8.63524C19.8877 8.72075 19.9528 8.79093 20.0354 8.8339C20.1179 8.87686 20.2128 8.88996 20.3039 8.87097L23.6661 8.15757L22.5123 11.706C22.4817 11.7993 22.4863 11.9006 22.5251 11.9909C22.5639 12.0811 22.6344 12.1541 22.7232 12.196L24.0383 12.8102L18.2009 17.5372C18.1355 17.5903 18.0884 17.6625 18.0661 17.7437C18.0439 17.8249 18.0476 17.9111 18.0768 17.9901L18.7964 19.9752L13.4676 19.0385C13.3808 19.0235 13.2917 19.0283 13.2069 19.0523C13.1221 19.0764 13.0438 19.1191 12.9777 19.1775C12.9116 19.2358 12.8595 19.3082 12.8251 19.3894C12.7907 19.4705 12.775 19.5584 12.779 19.6464L13.0582 25H11.9416Z" fill="#D62718"/>
</g>
<defs>
<clipPath id="clip0_201_99">
<rect width="25" height="25" fill="white"/>
</clipPath>
</defs>
</svg>
