<svg width="512" height="512" viewBox="0 0 512 512" fill="none" xmlns="http://www.w3.org/2000/svg">
<g clip-path="url(#clip0_267_16)">
<circle cx="256" cy="256" r="256" fill="#222222"/>
<g clip-path="url(#clip1_267_16)">
<path d="M255.5 289.762C274.328 289.762 289.591 274.499 289.591 255.671C289.591 236.843 274.328 221.58 255.5 221.58C236.672 221.58 221.409 236.843 221.409 255.671C221.409 274.499 236.672 289.762 255.5 289.762Z" fill="#087EA4"/>
<path d="M255.498 332.375C349.638 332.375 425.953 298.033 425.953 255.671C425.953 213.308 349.638 178.966 255.498 178.966C161.359 178.966 85.0439 213.308 85.0439 255.671C85.0439 298.033 161.359 332.375 255.498 332.375Z" stroke="#087EA4" stroke-width="17.0455"/>
<path d="M189.077 294.022C236.147 375.55 304.045 424.47 340.733 403.288C377.42 382.107 369.003 298.845 321.933 217.318C274.864 135.791 206.965 86.8708 170.278 108.052C133.591 129.234 142.007 212.495 189.077 294.022Z" stroke="#087EA4" stroke-width="17.0455"/>
<path d="M189.077 217.318C142.007 298.845 133.59 382.107 170.278 403.288C206.965 424.47 274.863 375.55 321.933 294.023C369.003 212.495 377.419 129.234 340.732 108.052C304.045 86.8709 236.146 135.791 189.077 217.318Z" stroke="#087EA4" stroke-width="17.0455"/>
</g>
</g>
<defs>
<clipPath id="clip0_267_16">
<rect width="512" height="512" fill="white"/>
</clipPath>
<clipPath id="clip1_267_16">
<rect width="375" height="345.511" fill="white" transform="translate(68 83)"/>
</clipPath>
</defs>
</svg>
